G04*
G04 #@! TF.GenerationSoftware,Altium Limited,Altium Designer,18.1.9 (240)*
G04*
G04 Layer_Color=8421504*
%FSLAX24Y24*%
%MOIN*%
G70*
G01*
G75*
%ADD10O,0.0138X0.0531*%
%ADD11R,0.0571X0.0551*%
%ADD12R,0.0413X0.0256*%
%ADD13R,0.0118X0.0118*%
%ADD14R,0.0220X0.0252*%
%ADD15R,0.0433X0.0571*%
%ADD16R,0.0453X0.0669*%
%ADD17R,0.2756X0.1575*%
%ADD18O,0.0094X0.0236*%
%ADD19O,0.0236X0.0094*%
D10*
X25666Y42474D02*
D03*
X25922D02*
D03*
X26178D02*
D03*
X26434D02*
D03*
X25666Y44226D02*
D03*
X25922D02*
D03*
X26178D02*
D03*
X26434D02*
D03*
D11*
X15611Y21150D02*
D03*
Y19150D02*
D03*
X17289Y21150D02*
D03*
Y19150D02*
D03*
D12*
X31553Y13350D02*
D03*
X30647Y12976D02*
D03*
Y13724D02*
D03*
D13*
X16614Y15250D02*
D03*
X16850D02*
D03*
X25082Y23500D02*
D03*
X25318D02*
D03*
X22982Y17500D02*
D03*
X23218D02*
D03*
X29632Y29900D02*
D03*
X29868D02*
D03*
X20532Y22700D02*
D03*
X20768D02*
D03*
D14*
X11930Y21150D02*
D03*
X12316D02*
D03*
X11957Y28050D02*
D03*
X12343D02*
D03*
X16257Y26200D02*
D03*
X16643D02*
D03*
X16257Y24250D02*
D03*
X16643D02*
D03*
X11907Y22700D02*
D03*
X12293D02*
D03*
X20484Y21100D02*
D03*
X20870D02*
D03*
X20407Y25850D02*
D03*
X20793D02*
D03*
X11907Y24250D02*
D03*
X12293D02*
D03*
X16257Y28050D02*
D03*
X16643D02*
D03*
X16257Y22700D02*
D03*
X16643D02*
D03*
X20407Y24250D02*
D03*
X20793D02*
D03*
D15*
X11900Y31950D02*
D03*
X12648D02*
D03*
D16*
X29130Y27700D02*
D03*
X30370D02*
D03*
X24630Y21650D02*
D03*
X25870D02*
D03*
X24630Y19150D02*
D03*
X25870D02*
D03*
X29080Y31950D02*
D03*
X30320D02*
D03*
X24630D02*
D03*
X25870D02*
D03*
X11630Y29900D02*
D03*
X12870D02*
D03*
X11580Y26200D02*
D03*
X12820D02*
D03*
X20148Y19200D02*
D03*
X21388D02*
D03*
X11530D02*
D03*
X12770D02*
D03*
X15833Y31950D02*
D03*
X17074D02*
D03*
X24600Y29900D02*
D03*
X25840D02*
D03*
X24630Y27700D02*
D03*
X25870D02*
D03*
X15833Y29900D02*
D03*
X17074D02*
D03*
X29100Y18700D02*
D03*
X30340D02*
D03*
X20680Y15300D02*
D03*
X21920D02*
D03*
X29130Y20950D02*
D03*
X30370D02*
D03*
X20060Y27700D02*
D03*
X21300D02*
D03*
X29100Y23200D02*
D03*
X30340D02*
D03*
X29130Y16450D02*
D03*
X30370D02*
D03*
X20080Y29900D02*
D03*
X21320D02*
D03*
X24630Y25450D02*
D03*
X25870D02*
D03*
X29130D02*
D03*
X30370D02*
D03*
D17*
X26074Y15700D02*
D03*
Y11763D02*
D03*
D18*
X19767Y39839D02*
D03*
X19964D02*
D03*
X20161D02*
D03*
X20358D02*
D03*
X20555D02*
D03*
X20752D02*
D03*
X20948D02*
D03*
X21145D02*
D03*
X21342D02*
D03*
X21539D02*
D03*
X21736D02*
D03*
X21933D02*
D03*
Y37161D02*
D03*
X21736D02*
D03*
X21539D02*
D03*
X21342D02*
D03*
X21145D02*
D03*
X20948D02*
D03*
X20752D02*
D03*
X20555D02*
D03*
X20358D02*
D03*
X20161D02*
D03*
X19964D02*
D03*
X19767D02*
D03*
D19*
X22189Y39583D02*
D03*
Y39386D02*
D03*
Y39189D02*
D03*
Y38992D02*
D03*
Y38795D02*
D03*
Y38598D02*
D03*
Y38402D02*
D03*
Y38205D02*
D03*
Y38008D02*
D03*
Y37811D02*
D03*
Y37614D02*
D03*
Y37417D02*
D03*
X19511D02*
D03*
Y37614D02*
D03*
Y37811D02*
D03*
Y38008D02*
D03*
Y38205D02*
D03*
Y38402D02*
D03*
Y38598D02*
D03*
Y38795D02*
D03*
Y38992D02*
D03*
Y39189D02*
D03*
Y39386D02*
D03*
Y39583D02*
D03*
M02*
