G04*
G04 #@! TF.GenerationSoftware,Altium Limited,Altium Designer,18.1.9 (240)*
G04*
G04 Layer_Color=8421504*
%FSLAX24Y24*%
%MOIN*%
G70*
G01*
G75*
%ADD10R,0.0453X0.0709*%
%ADD11R,0.0118X0.0118*%
%ADD12R,0.0236X0.0197*%
%ADD13R,0.0197X0.0236*%
%ADD14R,0.2756X0.1575*%
%ADD15R,0.0413X0.0256*%
%ADD16O,0.0236X0.0094*%
%ADD17O,0.0094X0.0236*%
%ADD18R,0.0433X0.0669*%
%ADD19R,0.0571X0.0551*%
%ADD20R,0.0276X0.0512*%
D10*
X23300Y22660D02*
D03*
X24481D02*
D03*
Y24660D02*
D03*
X23300D02*
D03*
X24481Y20660D02*
D03*
X23300D02*
D03*
X20736D02*
D03*
X19555D02*
D03*
X20736Y24660D02*
D03*
X19555D02*
D03*
X20736Y26660D02*
D03*
X19555D02*
D03*
X16743Y20660D02*
D03*
X15561D02*
D03*
X16743Y24660D02*
D03*
X15561D02*
D03*
X27050D02*
D03*
X28231D02*
D03*
X27050Y26660D02*
D03*
X28231D02*
D03*
X23300D02*
D03*
X24481D02*
D03*
X12050Y18660D02*
D03*
X13231D02*
D03*
X12050Y20660D02*
D03*
X13231D02*
D03*
Y24660D02*
D03*
X12050D02*
D03*
X12059Y26710D02*
D03*
X13241D02*
D03*
X23269Y18760D02*
D03*
X24450D02*
D03*
X27050Y22660D02*
D03*
X28231D02*
D03*
X23300Y28660D02*
D03*
X24481D02*
D03*
X19555Y22660D02*
D03*
X20736D02*
D03*
X12050D02*
D03*
X13231D02*
D03*
X15550Y26660D02*
D03*
X16731D02*
D03*
Y14910D02*
D03*
X15550D02*
D03*
D11*
X23836Y15960D02*
D03*
X23600D02*
D03*
Y16460D02*
D03*
X23836D02*
D03*
Y16960D02*
D03*
X23600D02*
D03*
X21914Y20610D02*
D03*
X22150D02*
D03*
D12*
X23600Y17560D02*
D03*
X23994D02*
D03*
X19603Y16560D02*
D03*
X19997D02*
D03*
X19609Y15810D02*
D03*
X20003D02*
D03*
X19997Y17310D02*
D03*
X19603D02*
D03*
X19609Y18060D02*
D03*
X20003D02*
D03*
X19997Y19560D02*
D03*
X19603D02*
D03*
X19606Y18810D02*
D03*
X20000D02*
D03*
D13*
X18600Y15413D02*
D03*
Y15807D02*
D03*
Y17060D02*
D03*
Y16666D02*
D03*
Y17916D02*
D03*
Y18310D02*
D03*
Y19166D02*
D03*
Y19560D02*
D03*
D14*
X27300Y20347D02*
D03*
Y16410D02*
D03*
D15*
X27247Y14084D02*
D03*
Y13336D02*
D03*
X28153Y13710D02*
D03*
D16*
X18511Y34843D02*
D03*
Y34646D02*
D03*
Y34449D02*
D03*
Y34252D02*
D03*
Y34055D02*
D03*
Y33858D02*
D03*
Y33662D02*
D03*
Y33465D02*
D03*
Y33268D02*
D03*
Y33071D02*
D03*
Y32874D02*
D03*
Y32677D02*
D03*
X21189D02*
D03*
Y32874D02*
D03*
Y33071D02*
D03*
Y33268D02*
D03*
Y33465D02*
D03*
Y33662D02*
D03*
Y33858D02*
D03*
Y34055D02*
D03*
Y34252D02*
D03*
Y34449D02*
D03*
Y34646D02*
D03*
Y34843D02*
D03*
D17*
X18767Y32421D02*
D03*
X18964D02*
D03*
X19161D02*
D03*
X19358D02*
D03*
X19555D02*
D03*
X19752D02*
D03*
X19948D02*
D03*
X20145D02*
D03*
X20342D02*
D03*
X20539D02*
D03*
X20736D02*
D03*
X20933D02*
D03*
Y35099D02*
D03*
X20736D02*
D03*
X20539D02*
D03*
X20342D02*
D03*
X20145D02*
D03*
X19948D02*
D03*
X19752D02*
D03*
X19555D02*
D03*
X19358D02*
D03*
X19161D02*
D03*
X18964D02*
D03*
X18767D02*
D03*
D18*
X11950Y16810D02*
D03*
X13013D02*
D03*
D19*
X17039D02*
D03*
Y18810D02*
D03*
X15361Y16810D02*
D03*
Y18810D02*
D03*
D20*
X12898Y14760D02*
D03*
X12150D02*
D03*
M02*
